{
	"asset":{
		"generator":"Khronos glTF Blender I/O v4.1.63",
		"version":"2.0"
	},
	"extensionsUsed":[
		"KHR_materials_specular"
	],
	"scene":0,
	"scenes":[
		{
			"name":"Scene",
			"nodes":[
				0,
				1,
				2
			]
		}
	],
	"nodes":[
		{
			"mesh":0,
			"name":"BODY",
			"scale":[
				0.05000000074505806,
				0.05000000074505806,
				0.05000000074505806
			]
		},
		{
			"mesh":1,
			"name":"Hands",
			"scale":[
				0.05000000074505806,
				0.05000000074505806,
				0.05000000074505806
			]
		},
		{
			"mesh":2,
			"name":"HEAD",
			"scale":[
				0.05000000074505806,
				0.05000000074505806,
				0.05000000074505806
			]
		}
	],
	"materials":[
		{
			"doubleSided":true,
			"extensions":{
				"KHR_materials_specular":{
					"specularColorFactor":[
						2.0,
						2.0,
						2.0
					]
				}
			},
			"name":"Vivian.002",
			"pbrMetallicRoughness":{
				"baseColorTexture":{
					"index":0
				},
				"roughnessFactor":0.858578622341156
			}
		}
	],
	"meshes":[
		{
			"name":"Mesh.001",
			"primitives":[
				{
					"attributes":{
						"POSITION":0,
						"NORMAL":1,
						"TEXCOORD_0":2
					},
					"indices":3,
					"material":0
				}
			]
		},
		{
			"name":"Mesh.002",
			"primitives":[
				{
					"attributes":{
						"POSITION":4,
						"NORMAL":5,
						"TEXCOORD_0":6
					},
					"indices":7,
					"material":0
				}
			]
		},
		{
			"name":"Mesh.003",
			"primitives":[
				{
					"attributes":{
						"POSITION":8,
						"NORMAL":9,
						"TEXCOORD_0":10
					},
					"indices":11,
					"material":0
				}
			]
		}
	],
	"textures":[
		{
			"sampler":0,
			"source":0
		}
	],
	"images":[
		{
			"mimeType":"image/jpeg",
			"name":"30017_w_Vivian_D_8k",
			"uri":"30017_w_Vivian_D_8k.jpg"
		}
	],
	"accessors":[
		{
			"bufferView":0,
			"componentType":5126,
			"count":14391,
			"max":[
				25.79833221435547,
				156.5531005859375,
				18.72266387939453
			],
			"min":[
				-26.169010162353516,
				-0.5786476135253906,
				-12.139039993286133
			],
			"type":"VEC3"
		},
		{
			"bufferView":1,
			"componentType":5126,
			"count":14391,
			"type":"VEC3"
		},
		{
			"bufferView":2,
			"componentType":5126,
			"count":14391,
			"type":"VEC2"
		},
		{
			"bufferView":3,
			"componentType":5123,
			"count":81576,
			"type":"SCALAR"
		},
		{
			"bufferView":4,
			"componentType":5126,
			"count":3762,
			"max":[
				66.48908996582031,
				144.57952880859375,
				28.83509063720703
			],
			"min":[
				-65.01612091064453,
				97.57685852050781,
				-5.631569862365723
			],
			"type":"VEC3"
		},
		{
			"bufferView":5,
			"componentType":5126,
			"count":3762,
			"type":"VEC3"
		},
		{
			"bufferView":6,
			"componentType":5126,
			"count":3762,
			"type":"VEC2"
		},
		{
			"bufferView":7,
			"componentType":5123,
			"count":20184,
			"type":"SCALAR"
		},
		{
			"bufferView":8,
			"componentType":5126,
			"count":3851,
			"max":[
				7.372338771820068,
				183.41944885253906,
				19.89891815185547
			],
			"min":[
				-10.266253471374512,
				150.38070678710938,
				-13.059822082519531
			],
			"type":"VEC3"
		},
		{
			"bufferView":9,
			"componentType":5126,
			"count":3851,
			"type":"VEC3"
		},
		{
			"bufferView":10,
			"componentType":5126,
			"count":3851,
			"type":"VEC2"
		},
		{
			"bufferView":11,
			"componentType":5123,
			"count":21564,
			"type":"SCALAR"
		}
	],
	"bufferViews":[
		{
			"buffer":0,
			"byteLength":172692,
			"byteOffset":0,
			"target":34962
		},
		{
			"buffer":0,
			"byteLength":172692,
			"byteOffset":172692,
			"target":34962
		},
		{
			"buffer":0,
			"byteLength":115128,
			"byteOffset":345384,
			"target":34962
		},
		{
			"buffer":0,
			"byteLength":163152,
			"byteOffset":460512,
			"target":34963
		},
		{
			"buffer":0,
			"byteLength":45144,
			"byteOffset":623664,
			"target":34962
		},
		{
			"buffer":0,
			"byteLength":45144,
			"byteOffset":668808,
			"target":34962
		},
		{
			"buffer":0,
			"byteLength":30096,
			"byteOffset":713952,
			"target":34962
		},
		{
			"buffer":0,
			"byteLength":40368,
			"byteOffset":744048,
			"target":34963
		},
		{
			"buffer":0,
			"byteLength":46212,
			"byteOffset":784416,
			"target":34962
		},
		{
			"buffer":0,
			"byteLength":46212,
			"byteOffset":830628,
			"target":34962
		},
		{
			"buffer":0,
			"byteLength":30808,
			"byteOffset":876840,
			"target":34962
		},
		{
			"buffer":0,
			"byteLength":43128,
			"byteOffset":907648,
			"target":34963
		}
	],
	"samplers":[
		{
			"magFilter":9729,
			"minFilter":9987
		}
	],
	"buffers":[
		{
			"byteLength":950776,
			"uri":"model.bin"
		}
	]
}
